<?xml version="1.0" encoding="UTF-8" standalone="no"?>
<!DOCTYPE svg PUBLIC "-//W3C//DTD SVG 1.1//EN"
 "http://www.w3.org/Graphics/SVG/1.1/DTD/svg11.dtd">
<!-- Generated by graphviz version 2.38.0 (20140413.2041)
 -->
<!-- Title: graphname Pages: 1 -->
<svg width="570pt" height="465pt"
 viewBox="0.00 0.00 569.87 465.42" xmlns="http://www.w3.org/2000/svg" xmlns:xlink="http://www.w3.org/1999/xlink">
<g id="graph0" class="graph" transform="scale(1 1) rotate(0) translate(4 461.421)">
<title>graphname</title>
<polygon fill="white" stroke="none" points="-4,4 -4,-461.421 565.873,-461.421 565.873,4 -4,4"/>
<!-- xlocals_1_ -->
<g id="node1" class="node"><title>xlocals_1_</title>
<ellipse fill="none" stroke="red" cx="355.437" cy="-35.3553" rx="83.9953" ry="35.2113"/>
<text text-anchor="start" x="330.947" y="-45.1553" font-family="Times,serif" font-size="14.00">locals[1]</text>
<text text-anchor="start" x="304.218" y="-31.1553" font-family="Times,serif" font-size="14.00">DoubleTensor(32)</text>
<text text-anchor="start" x="331.723" y="-17.1553" font-family="Times,serif" font-size="14.00">[inf, inf]</text>
</g>
<!-- node2 -->
<g id="node2" class="node"><title>node2</title>
<polygon fill="none" stroke="red" points="427.147,-142.711 283.726,-142.711 283.726,-106.711 427.147,-106.711 427.147,-142.711"/>
<text text-anchor="start" x="330.359" y="-127.511" font-family="Times,serif" font-size="14.00">torch.div</text>
<text text-anchor="start" x="291.832" y="-113.511" font-family="Times,serif" font-size="14.00">1: fn@test/test.lua:975</text>
</g>
<!-- node2&#45;&gt;xlocals_1_ -->
<g id="edge1" class="edge"><title>node2&#45;&gt;xlocals_1_</title>
<path fill="none" stroke="green" d="M355.437,-106.452C355.437,-99.0822 355.437,-90.105 355.437,-81.0686"/>
<polygon fill="green" stroke="green" points="358.937,-80.9236 355.437,-70.9236 351.937,-80.9236 358.937,-80.9236"/>
</g>
<!-- xrlocals_1_ -->
<g id="node3" class="node"><title>xrlocals_1_</title>
<ellipse fill="none" stroke="black" cx="291.437" cy="-214.066" rx="83.9953" ry="35.2113"/>
<text text-anchor="start" x="264.616" y="-223.866" font-family="Times,serif" font-size="14.00">rlocals[1]</text>
<text text-anchor="start" x="240.218" y="-209.866" font-family="Times,serif" font-size="14.00">DoubleTensor(32)</text>
<text text-anchor="start" x="269.274" y="-195.866" font-family="Times,serif" font-size="14.00">[25, 25]</text>
</g>
<!-- xrlocals_1_&#45;&gt;node2 -->
<g id="edge3" class="edge"><title>xrlocals_1_&#45;&gt;node2</title>
<path fill="none" stroke="green" d="M315.632,-180.041C322.607,-170.521 330.108,-160.282 336.698,-151.288"/>
<polygon fill="green" stroke="green" points="339.603,-153.245 342.689,-143.11 333.956,-149.108 339.603,-153.245"/>
</g>
<!-- node1 -->
<g id="node4" class="node"><title>node1</title>
<polygon fill="none" stroke="black" points="324.592,-321.421 258.281,-321.421 258.281,-285.421 324.592,-285.421 324.592,-321.421"/>
<text text-anchor="start" x="266.359" y="-299.221" font-family="Times,serif" font-size="14.00">torch.mv</text>
</g>
<!-- node1&#45;&gt;xrlocals_1_ -->
<g id="edge2" class="edge"><title>node1&#45;&gt;xrlocals_1_</title>
<path fill="none" stroke="green" d="M291.437,-285.163C291.437,-277.793 291.437,-268.816 291.437,-259.779"/>
<polygon fill="green" stroke="green" points="294.937,-259.634 291.437,-249.634 287.937,-259.634 294.937,-259.634"/>
</g>
<!-- xp1_W -->
<g id="node5" class="node"><title>xp1_W</title>
<polygon fill="none" stroke="black" points="60.9522,-357.421 231.921,-357.421 292.81,-457.421 0.0634491,-457.421 60.9522,-357.421"/>
<text text-anchor="start" x="131.08" y="-417.221" font-family="Times,serif" font-size="14.00">p1.W</text>
<text text-anchor="start" x="81.2183" y="-403.221" font-family="Times,serif" font-size="14.00">DoubleTensor(32, 100)</text>
<text text-anchor="start" x="120.774" y="-389.221" font-family="Times,serif" font-size="14.00">[0.5, 0.5]</text>
</g>
<!-- xp1_W&#45;&gt;node1 -->
<g id="edge4" class="edge"><title>xp1_W&#45;&gt;node1</title>
<path fill="none" stroke="green" d="M216.388,-357.214C231.216,-346.783 246.187,-336.252 258.814,-327.37"/>
<polygon fill="green" stroke="green" points="260.986,-330.121 267.151,-321.505 256.959,-324.396 260.986,-330.121"/>
</g>
<!-- xp1_x -->
<g id="node6" class="node"><title>xp1_x</title>
<polygon fill="none" stroke="black" points="363.217,-357.421 509.657,-357.421 561.81,-457.421 311.063,-457.421 363.217,-357.421"/>
<text text-anchor="start" x="424.187" y="-417.221" font-family="Times,serif" font-size="14.00">p1.x</text>
<text text-anchor="start" x="381.718" y="-403.221" font-family="Times,serif" font-size="14.00">DoubleTensor(100)</text>
<text text-anchor="start" x="410.774" y="-389.221" font-family="Times,serif" font-size="14.00">[0.5, 0.5]</text>
</g>
<!-- xp1_x&#45;&gt;node1 -->
<g id="edge5" class="edge"><title>xp1_x&#45;&gt;node1</title>
<path fill="none" stroke="green" d="M366.485,-357.214C351.657,-346.783 336.686,-336.252 324.059,-327.37"/>
<polygon fill="green" stroke="green" points="325.914,-324.396 315.722,-321.505 321.887,-330.121 325.914,-324.396"/>
</g>
<!-- x0 -->
<g id="node7" class="node"><title>x0</title>
<polygon fill="none" stroke="black" points="404.668,-196.066 436.205,-196.066 447.437,-232.066 393.437,-232.066 404.668,-196.066"/>
<text text-anchor="start" x="416.937" y="-209.866" font-family="Times,serif" font-size="14.00">0</text>
</g>
<!-- x0&#45;&gt;node2 -->
<g id="edge6" class="edge"><title>x0&#45;&gt;node2</title>
<path fill="none" stroke="green" d="M407.595,-195.807C398.069,-183.005 384.934,-165.353 374.229,-150.966"/>
<polygon fill="green" stroke="green" points="377.029,-148.867 368.252,-142.933 371.413,-153.046 377.029,-148.867"/>
</g>
</g>
</svg>
